<svg width="95" height="172" viewBox="0 0 95 172" fill="none" xmlns="http://www.w3.org/2000/svg">
<path d="M72.6927 0.567719C74.8542 11.3906 69.4427 22.5573 61.6458 30.349C53.8489 38.1615 43.875 43.3386 34.3646 48.9011C24.8333 54.4688 15.3177 60.8177 9.34374 70.0938C4.1354 78.1615 2.00519 87.8281 0.916653 97.3594C-0.442722 108.932 -0.255222 121.068 3.42186 131.958C6.09374 125.391 9.58332 119.109 13.5469 113.24C21.3437 101.682 30.9427 91.4844 40.4896 81.3438C51.6562 69.4948 62.8021 57.6667 73.9687 45.8229C62.4114 67.474 44.5052 84.9323 29.375 104.25C14.2448 123.589 1.34374 146.667 2.75519 171.177C3.88019 158.63 14.0573 148.672 25.1042 142.615C36.151 136.557 48.5208 133.167 59.401 126.839C79.9739 114.854 93.8125 92.0156 94.8854 68.2188C95.9739 44.1563 84.9948 21.2604 72.6927 0.567719Z" fill="url(#paint0_linear_35_3)"/>
<defs>
<linearGradient id="paint0_linear_35_3" x1="47.5503" y1="0.567719" x2="47.5503" y2="171.177" gradientUnits="userSpaceOnUse">
<stop stop-color="#FF914D"/>
<stop offset="1" stop-color="#99572E"/>
</linearGradient>
</defs>
</svg>
